{"title":"The Wicked 2013-Dvdrip-H264-MRFIXIT","uid":8299829,"size":794586266,"categoryP":"video","categoryS":"movies","magnet":"?xt=urn:btih:9e7738f7aea0be33b4dcfef8be2d51e0da9bad3d&amp;dn=The+Wicked+2013-Dvdrip-H264-MRFIXIT&amp;tr=udp%3A%2F%2Ftracker.openbittorrent.com%3A80&amp;tr=udp%3A%2F%2Fopen.demonii.com%3A1337&amp;tr=udp%3A%2F%2Ftracker.coppersurfer.tk%3A6969&amp;tr=udp%3A%2F%2Fexodus.desync.com%3A6969","seeders":1,"leechers":0,"uploader":"sceneline","files":5,"time":1364241707,"description":"-\n &lt;a href=&quot;\nhttp://www.Speed.&quot; rel=&quot;nofollow&quot; target=&quot;_NEW&quot;&gt;\nhttp://www.Speed.&lt;/a&gt; Cd       the fast  and The Hottest Private Tracker on the net &lt;a href=&quot;\nhttp://www.Speed.&quot; rel=&quot;nofollow&quot; target=&quot;_NEW&quot;&gt;\nhttp://www.Speed.&lt;/a&gt; Cd\n\nPlease Seed back to make the speed Faster!!\n ............ NFO .............\n-\n &lt;a href=&quot;\nhttp://www.Speed.&quot; rel=&quot;nofollow&quot; target=&quot;_NEW&quot;&gt;\nhttp://www.Speed.&lt;/a&gt; Cd[URL=http://img822.imageshack.us/i/wickeddvdcover.jpg/][IMG]http://img822.imageshack.us/img822/2522/wickeddvdcover.jpg[/IMG][/URL]\n\n\nMRFIXIT is proud to present:   The Wicked 2013 PAL DVDR-iNVANDRAREN\nSource:  The Wicked 2013 PAL DVDR-iNVANDRAREN\n\n[URL=http://img204.imageshack.us/i/27867621.png/][IMG]http://img204.imageshack.us/img204/2294/27867621.png[/IMG][/URL]\n\nComplete name                            : C:The Wicked 2013-Dvdrip-H264-MRFIXIT.avi\nFormat                                   : AVI\nFormat/Info                              : Audio Video Interleave\nFile size                                : 746 MiB\nDuration                                 : 1h 40mn\nOverall bit rate                         : 1 037 Kbps\nWriting library                          : VirtualDub build 32842/release\n\n[URL=http://img713.imageshack.us/i/32031619.png/][IMG]http://img713.imageshack.us/img713/512/32031619.png[/IMG][/URL]\n\nID                                       : 0\nFormat                                   : AVC\nFormat/Info                              : Advanced Video Codec\nFormat profile                           : &lt;a class=&quot;__cf_email__&quot; href=&quot;/cdn-cgi/l/email-protection&quot; data-cfemail=&quot;a1e9c8c6c9e1ed928f91&quot;&gt;[email&amp;#160;protected]&lt;/a&gt;&lt;script cf-hash='f9e31' type=&quot;text/javascript&quot;&gt;\n/* &lt;![CDATA[ */!function(){try{var t=&quot;currentScript&quot;in document?document.currentScript:function(){for(var t=document.getElementsByTagName(&quot;script&quot;),e=t.length;e--;)if(t[e].getAttribute(&quot;cf-hash&quot;))return t[e]}();if(t&amp;&amp;t.previousSibling){var e,r,n,i,c=t.previousSibling,a=c.getAttribute(&quot;data-cfemail&quot;);if(a){for(e=&quot;&quot;,r=parseInt(a.substr(0,2),16),n=2;a.length-n;n+=2)i=parseInt(a.substr(n,2),16)^r,e+=String.fromCharCode(i);e=document.createTextNode(e),c.parentNode.replaceChild(e,c)}}}catch(u){}}();/* ]]&gt; */&lt;/script&gt;\nFormat settings, CABAC                   : Yes\nFormat settings, ReFrames                : 3 frames\nCodec ID                                 : H264\nDuration                                 : 1h 40mn\nBit rate                                 : 900 Kbps\nWidth                                    : 720 pixels\nHeight                                   : 384 pixels\nDisplay aspect ratio                     : 1.85:1\nFrame rate                               : 25.000 fps\nColor space                              : YUV\nChroma subsampling                       : 4:2:0\nBit depth                                : 8 bits\nScan type                                : Progressive\nBits/(Pixel*Frame)                       : 0.130\nStream size                              : 647 MiB (87%)\nWriting library                          : x264 core 130 r2273kMod b3065e6\nEncoding settings                        : cabac=1 / ref=3 / deblock=1:0:0 / analyse=0x3:0x13 / me=umh / subme=7 / psy=1 / fade_compensate=0.00 / psy_rd=1.00:0.00 / mixed_ref=1 / me_range=16 / chroma_me=1 / trellis=1 / 8x8dct=1 / cqm=0 / deadzone=21,11 / fast_pskip=1 / chroma_qp_offset=-2 / threads=6 / lookahead_threads=6 / sliced_threads=1 / slices=6 / nr=0 / decimate=1 / interlaced=0 / bluray_compat=0 / constrained_intra=0 / bframes=0 / weightp=2 / keyint=250 / keyint_min=25 / scenecut=40 / intra_refresh=0 / rc=2pass / mbtree=0 / bitrate=900 / ratetol=1.0 / qcomp=0.60 / qpmin=10 / qpmax=51 / qpstep=4 / cplxblur=20.0 / qblur=0.5 / ip_ratio=1.40 / aq=1:1.00\n\n[URL=http://img684.imageshack.us/i/14258198.png/][IMG]http://img684.imageshack.us/img684/6473/14258198.png[/IMG][/URL]\n\nID                                       : 1\nFormat                                   : MPEG Audio\nFormat version                           : Version 1\nFormat profile                           : Layer 3\nMode                                     : Joint stereo\nCodec ID                                 : 55\nCodec ID/Hint                            : MP3\nDuration                                 : 1h 40mn\nBit rate mode                            : Constant\nBit rate                                 : 128 Kbps\nChannel(s)                               : 2 channels\nSampling rate                            : 48.0 KHz\nCompression mode                         : Lossy\nStream size                              : 92.1 MiB (12%)\nAlignment                                : Split accross interleaves\nInterleave, duration                     : 40 ms (1.00 video frame)\nInterleave, preload duration             : 500 ms\nWriting library                          : LAME3.99.5 \n\n[URL=http://img36.imageshack.us/i/19805875.png/][IMG]http://img36.imageshack.us/img36/52/19805875.png[/IMG][/URL]\n &lt;a href=&quot;\nhttp://www.imdb.com/title/tt1986994/&quot; rel=&quot;nofollow&quot; target=&quot;_NEW&quot;&gt;\nhttp://www.imdb.com/title/tt1986994/&lt;/a&gt;\n\n[URL=http://img225.imageshack.us/i/39945039.png/][IMG]http://img225.imageshack.us/img225/9529/39945039.png[/IMG][/URL]\n\nA Group of teenagers test the legend of an immortal witch and get more than they bargained for. \n\n[URL=http://img405.imageshack.us/i/70975872.png/][IMG]http://img405.imageshack.us/img405/6001/70975872.png[/IMG][/URL]\n\nDevon Werkheiser\nNicole Forester\nJustin Deeley\nCaitlin Carmichael\nJamie Kaler\nCassie Keller\nChase Maser\nJess Adams\nJackelyn Gauci\nDiana Hopper\nCarlos Faison\nCeleste Risko\nRobert Young\n\n[URL=http://img819.imageshack.us/i/94723758.png/][IMG]http://img819.imageshack.us/img819/9863/94723758.png[/IMG][/URL]\n\n[URL=http://img6.imageshack.us/i/21554973.jpg/][IMG]http://img6.imageshack.us/img6/7730/21554973.jpg[/IMG][/URL]\n[URL=http://img14.imageshack.us/i/17995186.jpg/][IMG]http://img14.imageshack.us/img14/2333/17995186.jpg[/IMG][/URL]\n[URL=http://img7.imageshack.us/i/97984902.jpg/][IMG]http://img7.imageshack.us/img7/2694/97984902.jpg[/IMG][/URL]\n[URL=http://img837.imageshack.us/i/39382951.jpg/][IMG]http://img837.imageshack.us/img837/1039/39382951.jpg[/IMG][/URL]\n[URL=http://img11.imageshack.us/i/72663894.jpg/][IMG]http://img11.imageshack.us/img11/161/72663894.jpg[/IMG][/URL]\n[URL=http://img5.imageshack.us/i/54130937.jpg/][IMG]http://img5.imageshack.us/img5/7461/54130937.jpg[/IMG][/URL]\n\n[URL=http://img834.imageshack.us/i/greets3.png/][IMG]http://img834.imageshack.us/img834/3478/greets3.png[/IMG][/URL]\n\nvoltage, DQ1, LEGION, PRESTiGE, 26k, RemixHD, UNiQUE, Legend-Rg, DiNGiE, Relentle$$,\nBigguy, paranoid53, HIVE-CM8, TRINITY, Rx, INSPiRAL, HOPE, tommiecook, Wayne, Seedling, Quagmire","torrent":{"xt":"urn:btih:9e7738f7aea0be33b4dcfef8be2d51e0da9bad3d","amp;dn":"The+Wicked+2013-Dvdrip-H264-MRFIXIT","amp;tr":["udp%3A%2F%2Ftracker.openbittorrent.com%3A80","udp%3A%2F%2Fopen.demonii.com%3A1337","udp%3A%2F%2Ftracker.coppersurfer.tk%3A6969","udp%3A%2F%2Fexodus.desync.com%3A6969"],"infoHash":"9e7738f7aea0be33b4dcfef8be2d51e0da9bad3d","infoHashBuffer":{"type":"Buffer","data":[158,119,56,247,174,160,190,51,180,220,254,248,190,45,81,224,218,155,173,61]},"announce":[],"urlList":[]}}